HIERARCHY
ROOT Hips
{
   OFFSET 0.00000 0.00000 0.00000
   CHANNELS 6 Xposition Yposition Zposition Zrotation Xrotation Yrotation
   JOINT Spine
   {
      OFFSET 0.000000 11.890501 0.000000
      CHANNELS 3 Zrotation Xrotation Yrotation
      JOINT Spine1
      {
         OFFSET -0.000000 25.657401 0.127660
         CHANNELS 3 Zrotation Xrotation Yrotation
         JOINT HEad
         {
            OFFSET 0.000000 8.734161 0.011340
            CHANNELS 3 Zrotation Xrotation Yrotation
            End Site
            {
               OFFSET -0.290000 12.774200 2.513950
            }
         }
         JOINT LeftShoulder1
         {
            OFFSET 8.990000 -0.362250 -0.220000
            CHANNELS 3 Zrotation Xrotation Yrotation
            JOINT LeftArm
            {
               OFFSET 10.282700 -0.003380 0.322120
               CHANNELS 3 Zrotation Xrotation Yrotation
               JOINT LeftForeArm
               {
                  OFFSET 32.766900 0.099140 -1.424340
                  CHANNELS 3 Zrotation Xrotation Yrotation
                  JOINT LeftHand
                  {
                     OFFSET 27.564301 0.085360 1.022160
                     CHANNELS 3 Zrotation Xrotation Yrotation
                     End Site
                     {
                        OFFSET 16.744301 -0.600000 1.502910
                     }
                  }
               }
            }
         }
         JOINT RightShoulder
         {
            OFFSET -8.990000 -0.362250 -0.220000
            CHANNELS 3 Zrotation Xrotation Yrotation
            JOINT RightArm
            {
               OFFSET -10.282700 -0.003380 0.322120
               CHANNELS 3 Zrotation Xrotation Yrotation
               JOINT RightForeArm
               {
                  OFFSET -32.897098 0.099140 -1.424340
                  CHANNELS 3 Zrotation Xrotation Yrotation
                  JOINT RightHand
                  {
                     OFFSET -27.492101 0.085360 1.022160
                     CHANNELS 3 Zrotation Xrotation Yrotation
                     End Site
                     {
                        OFFSET -16.631201 -0.600000 1.502910
                     }
                  }
               }
            }
         }
      }
   }
   JOINT LeftUpLeg
   {
      OFFSET 8.945800 -8.667070 0.101650
      CHANNELS 3 Zrotation Xrotation Yrotation
      JOINT LeftLeg
      {
         OFFSET 0.000000 -44.422697 1.372700
         CHANNELS 3 Zrotation Xrotation Yrotation
         JOINT LeftFoot
         {
            OFFSET -0.253550 -42.092399 -1.460590
            CHANNELS 3 Zrotation Xrotation Yrotation
            JOINT LeftToes
            {
               OFFSET -0.040000 -4.415090 8.499099
               CHANNELS 3 Zrotation Xrotation Yrotation
               End Site
               {
                  OFFSET 0.080000 -0.047450 9.779790
               }
            }
         }
      }
   }
   JOINT RightUpLeg
   {
      OFFSET -8.945800 -8.667070 0.101650
      CHANNELS 3 Zrotation Xrotation Yrotation
      JOINT RightLeg
      {
         OFFSET 0.000000 -44.422697 1.372700
         CHANNELS 3 Zrotation Xrotation Yrotation
         JOINT RightFoot
         {
            OFFSET 0.253550 -42.092399 -1.460590
            CHANNELS 3 Zrotation Xrotation Yrotation
            JOINT RightToes
            {
               OFFSET 0.040000 -4.415090 8.499099
               CHANNELS 3 Zrotation Xrotation Yrotation
               End Site
               {
                  OFFSET -0.080000 -0.137450 9.779790
               }
            }
         }
      }
   }
}
MOTION
Frames: 7
Frame Time: 0.016670
-9.610715 82.077712 -37.994291 40.914558 35.095824 122.869543 10.393028 42.218034 114.551438 41.094380 -7.133602 -100.129221 15.907927 44.661613 -14.556240 -17.398869 -59.792453 2.344731 -5.072711 41.356672 -63.854059 9.369409 8.318939 -54.604893 -51.543428 -73.132441 -115.616115 -34.077695 64.045072 61.239783 135.710627 -9.919995 183.536540 -35.839263 69.863860 85.530115 -12.165082 42.535543 -11.710078 16.477603 23.196668 -41.000502 -25.034855 3.315268 31.768549 31.413812 -19.313647 23.367559 -0.922117 17.993669 -48.179328 -55.339470 56.335803 56.802151 25.717254 26.169795 34.974796 -19.983663 -3.602666 23.472176 77.451538 -74.166729 -28.697713
-9.684726 81.291074 -37.896659 37.330580 36.570694 125.577836 11.140451 46.361142 122.373426 36.268598 -4.247513 -102.204130 17.190543 39.814750 -18.194444 -18.291667 -56.539012 -4.790440 -4.496306 41.191621 -56.730872 20.538019 7.605056 -58.776264 -59.266248 -79.637130 -120.622602 -46.372883 60.385614 64.914821 144.338495 -19.200092 182.786039 -43.328285 67.340092 79.558050 -1.716238 28.181536 -10.486640 13.527372 19.927123 -40.072921 -26.617850 5.181883 31.894009 35.020552 -17.677969 23.130024 -3.272259 17.988782 -49.078140 -54.499118 55.597391 55.812167 23.975783 27.270601 34.291275 -13.572342 -2.474825 24.039361 72.162731 -74.467497 -28.972809
-9.793157 80.513152 -37.758586 33.493130 38.225427 128.196667 12.365357 44.322347 130.189648 25.494349 -6.509678 -105.582259 19.427215 31.229828 -23.387030 -24.301017 -51.248784 -1.241556 -2.080546 51.940546 -55.801539 31.420472 3.890539 -56.020566 -66.749724 -84.519773 -128.324829 -49.547384 63.367524 57.983395 140.665929 -24.355309 170.896838 -47.853777 66.599160 69.577628 -4.884821 29.664529 5.086036 10.007886 16.905160 -38.786558 -28.083550 6.835077 33.142202 38.699049 -15.195178 23.677144 -5.660625 17.924558 -49.971607 -54.187821 54.186373 55.142842 23.222869 28.799049 33.676196 -13.198546 -2.354674 24.433403 72.013806 -75.667363 -29.699722
-9.901615 79.729098 -37.574338 29.931354 38.622227 131.878795 10.077567 47.250866 140.734272 17.565735 -5.239605 -108.332080 21.196420 23.460525 -29.165174 -28.761418 -46.057086 -9.480417 -3.255013 54.583949 -50.238056 36.623232 1.764634 -54.044220 -70.245627 -86.364327 -133.922620 -50.047829 66.903889 51.508564 137.613340 -28.224203 162.420478 -45.025649 66.426055 55.722247 10.687412 9.486832 1.641603 7.268385 13.684199 -38.036808 -28.690592 8.845418 35.030077 41.871457 -13.844782 25.271570 -8.385136 17.338089 -49.942982 -52.073069 53.386179 53.625383 23.398034 28.530650 32.699275 -11.887822 -1.617121 25.404807 69.921275 -76.386268 -29.459699
-9.923256 79.006771 -37.452020 26.774032 38.462393 135.173555 7.554894 51.468375 151.925660 10.017507 -2.706692 -111.038611 22.461229 18.492944 -34.599402 -34.170610 -43.377555 -18.062946 -4.639371 59.253592 -48.400264 39.659739 1.334948 -52.437954 -71.593578 -87.292495 -136.615067 -49.881473 70.123305 43.829884 134.550246 -30.773339 156.995518 -38.169727 61.955471 37.874010 -15.844828 28.672714 15.966645 3.919981 9.497399 -38.261251 -29.225888 12.331292 37.360534 44.696471 -12.604600 27.297631 -11.129111 16.678145 -49.388572 -50.149086 52.651507 51.572914 23.960389 28.316095 31.004643 -12.140465 -1.159714 25.969279 68.993421 -77.051268 -29.541439
-10.006243 78.188275 -37.146437 23.763306 38.578244 138.580276 4.334009 53.630314 162.891037 4.662167 -0.774048 -113.475547 23.863711 14.546560 -39.574184 -40.458328 -42.105005 -22.606101 -6.632383 62.587359 -47.728351 40.533792 0.670447 -56.317679 -72.211697 -86.351671 -138.221077 -46.231320 75.328333 35.203977 132.623737 -33.960435 153.518515 -33.737047 53.514320 25.798992 -12.710125 19.102468 19.914789 1.803906 6.012529 -39.024358 -30.127982 14.298056 39.094213 46.599881 -10.582237 28.286284 -14.335081 15.810293 -49.409807 -47.843354 51.747132 49.917707 24.279345 28.690210 29.065313 -11.736704 -1.132712 26.374285 67.678412 -77.316437 -29.508149
-10.232822 77.310928 -36.588008 22.328631 38.899590 141.665295 -1.142486 55.071938 171.905357 2.863430 -0.177346 -116.524106 25.398087 13.098081 -43.047855 -44.921994 -42.659422 -22.628444 -7.032558 64.103873 -48.630059 31.235094 -0.060440 -62.783789 -71.691872 -78.441676 -138.518381 -38.981375 80.447846 27.810893 132.045643 -34.249724 156.032093 -32.135791 41.025429 24.676507 -27.377232 21.842737 33.627333 1.266630 4.841116 -40.150123 -30.814972 14.773163 40.441939 47.561722 -8.566304 29.013025 -17.979469 14.506873 -49.620877 -43.982518 51.302784 48.876017 25.327526 30.584826 27.490106 -10.899381 -1.384414 27.103927 67.077451 -76.787541 -30.047228
